<svg xmlns="http://www.w3.org/2000/svg" xml:space="preserve" id="_x32_" version="1.1" viewBox="0 0 512 512" fill="#666"><path d="M306.068 156.129c-6.566-5.771-14.205-10.186-22.912-13.244-8.715-3.051-17.82-4.58-27.326-4.58-9.961 0-19.236 1.59-27.834 4.752-8.605 3.171-16.127 7.638-22.576 13.41-6.449 5.772-11.539 12.9-15.272 21.384-3.736 8.486-5.604 17.937-5.604 28.34h44.131c0-7.915 2.258-14.593 6.785-20.028 4.524-5.426 11.314-8.138 20.369-8.138 8.598 0 15.328 2.661 20.197 7.974 4.864 5.322 7.297 11.942 7.297 19.856 0 3.854-.965 7.698-2.887 11.543-1.922 3.854-4.242 7.586-6.959 11.197l-21.26 27.232c-4.527 5.884-16.758 22.908-16.758 40.316v10.187h44.129v-7.128c0-2.938.562-5.996 1.699-9.168 1.127-3.162 6.453-10.904 8.268-13.168l21.264-28.243c4.752-6.333 8.705-12.839 11.881-19.518 3.166-6.67 4.752-14.308 4.752-22.913 0-10.86-1.926-20.478-5.772-28.85-3.848-8.373-9.053-15.45-15.612-21.213zM234.106 328.551h46.842v45.144h-46.842z" class="st0"/><path d="M256 0C114.613 0 0 114.615 0 256s114.613 256 256 256c141.383 0 256-114.615 256-256S397.383 0 256 0zm0 448c-105.871 0-192-86.131-192-192S150.129 64 256 64c105.867 0 192 86.131 192 192s-86.133 192-192 192z" class="st0"/></svg>